<svg width="100" height="100" viewBox="0 0 100 100" fill="none" xmlns="http://www.w3.org/2000/svg">
<path d="M91.6667 77.0833C91.6667 79.846 90.5692 82.4955 88.6157 84.449C86.6622 86.4025 84.0127 87.5 81.25 87.5C78.4873 87.5 75.8378 86.4025 73.8843 84.449C71.9308 82.4955 70.8333 79.846 70.8333 77.0833C70.8333 72.7916 73.4167 69.125 77.0833 67.5416V25H58.3333V30.625C63.4167 33.0416 66.6667 38.125 66.6667 43.75V91.6667H8.33333V43.75C8.33333 38.125 11.5833 33.0416 16.6667 30.625V25H8.33333V16.6666H16.6667V14.5833C16.6667 12.9257 17.3251 11.336 18.4972 10.1639C19.6693 8.99179 21.2591 8.33331 22.9167 8.33331C24.5743 8.33331 26.164 8.99179 27.3361 10.1639C28.5082 11.336 29.1667 12.9257 29.1667 14.5833V16.6666H45.8333V14.5833C45.8333 12.9257 46.4918 11.336 47.6639 10.1639C48.836 8.99179 50.4257 8.33331 52.0833 8.33331C53.7409 8.33331 55.3306 8.99179 56.5028 10.1639C57.6749 11.336 58.3333 12.9257 58.3333 14.5833V16.6666H77.0833C79.2935 16.6666 81.4131 17.5446 82.9759 19.1074C84.5387 20.6702 85.4167 22.7898 85.4167 25V67.5416C89.0833 69.125 91.6667 72.7916 91.6667 77.0833ZM45.8333 30.625V25H29.1667V30.625C34.25 33.0416 37.5 38.125 37.5 43.75C37.5 38.125 40.75 33.0416 45.8333 30.625Z" fill="#C9C9DF"/>
</svg>
